<svg xmlns="http://www.w3.org/2000/svg" viewBox="0 0 32 32">
  <circle cx="16" cy="16" r="16" fill="#2A6254"/>
  <g transform="translate(8, 23) scale(0.024, -0.024)">
    <path fill="white" stroke="white" stroke-width="30" d="M17 3Q40 7 60.5 23Q81 39 101 74L366 700L613 73Q621 53 632 40Q643 27 655 18.5Q667 10 677.5 6.5Q688 3 694 3L694 0L494 0L494 3Q509 7 517.5 15.5Q526 24 529.5 34Q533 44 532.5 54Q532 64 529 70L463 239L183 239L112 68Q106 53 109 41Q112 29 120.5 21Q129 13 140 8Q151 3 160 3L160 0L17 0ZM459 250L350 529Q337 562 328.5 563.5Q320 565 307 533L188 250Z"/>
  </g>
</svg>
